<svg width="1568" height="542" viewBox="0 0 1568 542" fill="none" xmlns="http://www.w3.org/2000/svg">
<path d="M1165.55 353.746C1164.08 347.725 1165.4 346.995 1159.23 350.205C1152.77 353.561 1146.32 358.022 1140.58 362.141C1134.84 366.26 1136.55 369.42 1136.55 379.276C1136.55 422.511 1137.89 448.703 1129.84 494.065C1122.45 535.685 1080.51 555.041 1063.12 531.628C1043.21 504.806 1053.41 449.549 1070.19 416.763C1077.83 401.826 1088.2 388.674 1098.45 373.234C1100.89 369.558 1100.57 370.369 1100.57 362.141C1100.57 322.334 1099.15 281.784 1096.08 242.095C1095.85 239.169 1094.47 238.324 1091.86 240.214C1077.91 250.313 1062.18 253.916 1045.75 255.666C1042.16 256.048 1042.34 256.229 1043.88 259.787C1068.23 294.253 1051.74 405.311 1022.39 408.614C984.787 412.847 964.641 385.989 957.478 354.116C952.733 321.126 953.971 282.196 976.006 245.014C977.196 243.005 978.968 242.361 977.196 242.719C950.539 246.683 912.65 253.746 911.967 284.447C911.072 324.616 913.485 359.235 918.455 398.986C918.948 402.933 917.375 407.01 913.082 407.359C904.832 408.029 886.137 407.359 885.325 403.062C875.166 349.298 879.102 299.955 875.303 245.692C875.099 242.787 874.21 242.36 871.833 244.079C867.173 246.606 858.54 251.06 850.481 255.759C846.986 257.798 841.318 259.635 842.388 262.229C849.138 278.583 859.883 304.763 853.839 340.341C849.192 367.696 832.573 389.103 812.876 396.412C792.73 403.888 785.343 402.099 767.545 398.486C766.088 398.19 762.525 396.434 762.511 396.729C761.271 422.751 765.031 466.259 765.197 492.723C765.295 508.266 741.459 504.389 733.483 498.905C730.35 496.751 729.079 482.155 728.522 471.165C724.478 391.373 721.809 311.603 716.631 231.852C716.274 226.366 717.379 225.173 722.884 224.725C730.107 224.137 740.1 227.587 746.34 230.724C750.834 232.983 753.305 237.508 753.231 242.932C753.206 244.697 753.687 243.812 754.453 242.334C758.515 234.491 765.522 230.731 773.674 226.764C788.828 219.39 805.745 223.372 821.326 234.093C827.086 238.057 830.505 243.543 834.365 247.704C836.232 249.718 851.678 242.081 857.734 237.732C863.574 233.54 869.956 229.579 873.212 222.814C875.079 218.934 880.016 217.814 883.691 218.758C890.138 220.413 908.826 225.827 908.306 235.053C908.252 236.017 904.831 249.893 910.331 246.683C913.682 244.728 916.393 241.646 920.173 239.118C938.451 226.894 972.699 232.102 984.625 227.456C1001.57 220.853 1008.45 225.701 1021.72 232.936C1036.49 240.991 1029.11 245.014 1047.07 241.592C1061.61 238.474 1086.14 232.936 1095.42 218.758C1097.82 215.1 1102.22 215.347 1105.08 215.635C1112.65 216.396 1119.08 220.759 1125.34 224.977C1126.04 225.447 1126.67 226.458 1126.78 227.291C1131.61 264.267 1132.87 303.103 1134.54 340.341C1134.71 344.107 1135.67 344.194 1138.83 342.685C1144.43 340.019 1150.6 336.046 1156.18 333.364C1162.07 328.929 1163.61 328.929 1163.55 325.822C1163.14 303.697 1162.46 290.042 1168.11 268.514C1174.59 243.868 1187.42 219.88 1213.78 218.758C1253.4 217.073 1247.35 287.31 1227.88 308.395C1220.96 315.886 1207.21 325.763 1200.95 330.272C1197.83 332.515 1198.58 333.567 1198.82 337.851C1199.96 358.923 1206.15 393.544 1221.3 389.545C1240.64 384.44 1267.67 336.656 1275.56 322.216C1280.17 313.779 1279.7 307.143 1280.54 297.228C1283.62 260.458 1293.88 227.211 1322.14 215.818C1336.35 210.094 1355.89 210.856 1364.89 224.614C1370.34 232.934 1374.94 250.704 1374.72 258.832C1374.61 262.889 1370.91 266.143 1366.21 264.801C1356.07 261.904 1354.68 249.303 1350.77 239.648C1350.16 238.142 1348.31 235.074 1345.66 235.159C1310.48 236.292 1309.32 339.503 1327.94 373.503C1330.2 376.932 1336.54 384.751 1343.22 384.751C1365.78 384.751 1384.33 342.798 1392.42 326.648C1396.09 319.321 1399.88 306.68 1404.11 299.453C1406.51 295.365 1405.87 292.441 1405.87 285.737C1405.86 267.025 1406.41 248.291 1405.7 229.606C1405.07 213.15 1404.68 196.709 1404.66 180.249C1404.65 176.705 1404.02 174.745 1400.04 174.855C1389.37 175.15 1374.67 175.84 1363.99 175.894C1355.12 175.939 1350.24 161.006 1362.34 160.625C1373.41 160.276 1382.33 159.766 1395.54 159.34C1399.13 159.225 1404.29 159.34 1404.39 156.858C1406.13 113.447 1406.96 50.1512 1408.3 8.09495C1408.78 -7.02303 1442.77 5.23088 1444.05 17.8934C1444.13 56.3878 1443.44 116.803 1442.64 155.738C1442.6 157.49 1443.83 157.223 1445.41 157.269C1477.69 158.2 1520.93 156.218 1558.55 157.27C1565.29 157.459 1571.67 172.214 1562.39 172.908C1522.68 175.876 1480.37 175.205 1445.47 176.281C1442.64 176.368 1442.64 177.219 1442.64 179.004C1442.46 235.159 1440.78 250.895 1444.89 314.471C1447.35 352.64 1461 387.331 1477.02 389.345C1485.07 390.358 1516.44 384.751 1517.93 296.827C1518.05 289.856 1534.35 292.851 1535.09 301.407C1537.45 328.929 1526.04 408.318 1479.7 408.318C1466.94 408.318 1442.77 412.169 1423.71 370.196C1417.57 356.668 1412.3 341.194 1410.72 326.492C1410.59 325.317 1409.31 329.601 1407.01 334.04C1388.97 368.877 1373.12 406.85 1339.35 408.318C1308.46 409.66 1284.96 370.549 1282.94 346.383C1282.27 338.35 1281.37 339.7 1280.54 341.012C1270.88 356.158 1246.01 405.099 1212.78 409.66C1191.39 410.757 1172.38 381.753 1165.55 353.746ZM814.89 353.767C824.292 315.504 821.713 288.083 808.175 255.759C802.803 242.932 793.798 237.818 785.507 237.614C769.556 237.223 757.153 253.479 756.49 267.958C756.49 302.142 759.154 312.147 761.168 369.878C761.337 374.718 761.256 378.8 762.511 379.276C781.986 386.66 808.164 381.142 814.89 353.767ZM1012.99 392.188C1029.11 405.456 1058.65 277.912 1008 245.61C1001.7 241.592 994.859 281.268 992.845 310.133C991.095 335.204 992.329 375.179 1012.99 392.188ZM1080.64 520.491C1084.65 524.854 1089.64 519.05 1091.14 514.907C1103.06 481.771 1099.78 440.374 1099.61 405.758C1099.61 405.271 1099.22 404.787 1099.02 404.301C1098.83 404.814 1098.69 405.352 1098.45 405.834C1090.15 422.043 1080.58 437.725 1076.25 455.605C1071.45 475.383 1065.18 503.692 1080.64 520.491ZM1215.94 239.826C1198.11 255.995 1198.1 288.547 1197.76 311.004C1197.72 313.574 1199.5 311.67 1200.59 311.08C1223.69 298.57 1227.88 261.801 1222.35 241.806C1221.65 239.281 1219.76 237.148 1215.94 239.826Z" fill="black"/>
<path d="M618.133 443.269C622.673 452.722 598.758 448.696 592.615 445.062C559.71 425.594 555.681 351.082 529.852 309.825C529.582 309.149 529.356 308.45 529.022 307.807C528.849 307.473 528.483 307.24 528.205 306.961C527.966 307.369 527.482 307.804 527.524 308.181C527.524 320.874 529.128 383.915 529.128 403.442C528.205 410.155 496.525 410.783 495.495 397.446C491.445 345.03 489.142 290.297 488.548 237.733C488.517 234.972 488.796 233.345 486.514 233.622C476.678 235.141 458.81 237.802 446.539 236.307C444.529 236.062 447.63 237.954 448.856 239.579C478.677 279.11 483.828 343.026 456.661 389.285C446.598 406.42 426.155 413.71 408.561 405.921C352.322 381.024 365.101 283.977 386.785 240.488C387.33 239.396 387.542 238.172 386.421 238.757C373.919 245.272 348.424 244.155 334.749 245.019C332.913 245.135 332.98 245.69 334.938 248.242C364.996 287.425 350.728 374.306 313.716 402.245C305.608 408.365 297.657 408.479 287.331 406.823C266.253 403.442 250.611 371.238 246.668 349.124C243.076 328.978 243.226 298.865 246.107 278.583C240.735 281.939 234.305 287.708 229.319 291.337C226.998 292.689 226.823 295.856 226.549 298.734C224.361 345.04 221.261 353.096 209.845 376.314C194.428 407.668 145.474 418.417 120.115 397.057C118.22 395.46 116.568 395.196 114.409 396.104C110.154 397.893 103.34 397.362 99.1744 397.057C86.4154 389.849 73.5009 307.116 71.7945 293.635C71.0621 287.848 70.2415 282.072 69.4162 276.297C69.2248 274.957 68.0329 274.101 67.1772 275.478C65.4323 278.286 63.8243 281.179 62.1135 284.009C41.1506 318.684 28.6848 354.633 25.6874 395.39C24.5519 410.83 28.1049 426.329 26.7472 441.388C26.2601 446.791 15.9572 448.135 12.2059 447.126C-8.36535 441.587 4.80402 365.955 8.04126 352.483C12.6976 333.107 19.1571 314.689 28.814 297.284C35.902 284.509 44.326 272.464 52.6185 260.456C56.5678 254.737 65.0023 247.933 64.7601 240.636C62.5441 173.869 56.4139 114.686 80.2763 50.3926C85.6313 35.9645 97.8314 13.9294 116.536 6.98944C124.979 3.85671 131.498 3.06015 139.466 4.53145C151.133 6.68578 162.932 13.2474 167.67 26.0512C177.982 53.9163 172.601 87.6977 166.04 113.972C157.656 147.547 139.577 181.886 117.573 208.567C114.123 212.75 110.827 217.125 108.031 221.757C105.668 223.37 107.233 234.111 107.233 234.111C107.233 234.111 109.375 257.606 110.883 274.132C110.915 274.808 111.709 275.449 112.153 276.105C112.497 275.547 113.041 275.026 113.156 274.423C116.806 255.338 124.257 232.335 141.447 221.203C149.773 215.812 158.051 213.741 168.78 213.972C188.405 214.395 201.424 227.134 211.344 242.055C217.972 252.024 220.946 264.516 224.361 275.677C225.31 278.777 224.537 280.213 227.436 278.416C245.845 267.002 261.042 248.49 274.913 232.174C283.064 222.587 293.099 225.394 303.425 227.151C308.991 228.098 314.022 230.296 319.383 231.616C325.781 233.192 332.313 234.305 338.711 233.675C346.265 232.932 357.869 231.832 365.343 229.951C373.383 227.928 383.868 225.339 391.334 221.942C397.773 219.012 404.586 218.345 411.323 217.511C424.153 215.924 439.801 220.879 452.582 223.3C465.559 225.758 476.995 224.137 486.514 218.167C488.721 217.088 488.518 216.063 488.496 213.951C488.121 178.188 481.336 -27.7883 562.938 8.72664C581.743 17.1418 589.425 49.4304 589.257 68.471C586.624 121.502 571.126 150.368 529.214 200.714C526.805 220.615 527.763 263.046 527.549 266.6C527.421 268.716 528.47 267.127 529.128 266.804C543.459 259.779 561.678 243.186 565.298 226.733C566.317 222.104 569.005 220.882 574.127 221.518C578.761 222.093 586.627 223.12 586.624 228.775C586.616 242.768 570.577 257.818 560.578 265.389C554.302 270.141 546.516 273.11 540.501 277.937C539.177 278.999 538.526 279.402 540.858 280.999C570.919 301.579 586.162 340.747 593.602 373.927C599.404 399.802 606.415 418.875 618.133 443.269ZM290.043 371.75C291.693 376.247 297.231 391.966 303.929 390.466C305.492 390.115 307.328 389.519 308.329 388.397C339.7 353.2 342.478 277.053 307.754 243.63C304.428 240.429 302.226 240.76 299.827 244.292C276.935 278.014 276.529 334.93 290.043 371.75ZM425.405 392.03C428.762 394.715 433.588 391.808 434.987 390.447C462.436 363.747 460.808 293.581 442.254 263.918C436.66 254.975 430.287 246.556 423.126 238.78C418.426 233.675 412.553 258.711 411.323 265.157C404.614 300.343 402.573 361.151 425.405 392.03ZM102.584 188.573C102.591 189.387 103.122 190.196 103.409 191.008C124.561 169.164 139.773 137.995 146.102 98.8367C150.81 69.7153 152.765 21.481 142.93 26.0512C117.573 37.8341 102.167 142.015 102.584 188.573ZM185.332 298.734C185.923 297.405 186.41 294.718 186.402 293.392C186.294 274.327 183.127 248.297 169.08 234.485C165.564 231.029 160.008 231.022 156.528 234.612C132.759 259.14 128.722 298.61 128.722 331.447C142.91 317.263 179.086 304.596 185.332 298.734ZM555.353 30.3829C550.715 24.2568 545.11 44.7517 544.191 47.1866C530.205 84.2253 532.784 134.524 528.7 174.053C528.65 174.544 529.032 175.08 529.214 175.596C529.632 175.21 530.13 174.881 530.453 174.427C557.933 135.895 588.264 73.8496 555.353 30.3829ZM167.489 386.902C180.348 371.427 182.579 343.147 185.332 324.011C185.534 322.609 186.7 312.539 184.954 312.851C183.927 313.035 182.967 313.705 182.029 314.263C162.443 325.933 133.395 334.196 130.557 360.734C127.379 390.466 158.563 397.645 167.489 386.902Z" fill="black"/>
<path d="M1122.64 183.91C1123.75 186.145 1123.91 188.492 1121.81 190.711C1115.85 196.989 1109.42 195.744 1101.96 190.147C1093.57 183.848 1100.23 175.111 1107.9 173.277C1114.97 171.588 1119.82 178.238 1122.64 183.91Z" fill="black"/>
</svg>
